<?xml version="1.0" encoding="UTF-8" standalone="no"?>
<svg
   width="50"
   height="50"
   viewBox="0 0 50 50"
   xmlns="http://www.w3.org/2000/svg"
   xmlns:svg="http://www.w3.org/2000/svg">
  <path d="m 42.408331,41.71524 c 1.660893,2.763113 3.015667,3.681631 5.7865,4.010752 v 2.763115 H 34.524681 L 21.719638,27.12673 h -3.19937 v 14.006835 c 0,3.75048 0.92608,4.270868 4.867826,4.59999 v 2.763114 H 2.7529685 v -2.763114 c 3.9417462,-0.329122 4.8679833,-0.85723 4.8679833,-4.59999 V 9.8362354 c 0,-3.8116098 -0.8036631,-4.2708684 -4.8679833,-4.5999906 V 2.473131 H 23.992771 c 12.805201,0 19.494779,2.6942644 19.494779,12.162239 0,7.164118 -3.482489,10.585476 -10.501188,11.764266 z M 20.364865,6.9431427 c -1.10994,0 -1.844597,0.7882232 -1.844597,1.9747331 V 22.656718 h 5.29652 c 5.480223,0 8.74088,-1.974733 8.74088,-8.021348 0,-6.1156233 -3.260657,-7.6922273 -8.557177,-7.6922273 z" />
  <path d="M 34.723982,4.1102342 H 14.808231 V 23.122751 h 19.915751 z" />
  <path d="m 32.161114,7.4272942 c -1.079218,1.9977354 0.589395,11.4121418 0.589395,11.4121418 0.023,0.497544 -0.313839,0.9338 -0.803662,1.040934 0,0 -10.210509,0.046 -13.593581,2.862686" fill="white" />
</svg>
